<svg width="415" height="366" viewBox="0 0 415 366" fill="none" xmlns="http://www.w3.org/2000/svg">
<rect width="415" height="366" fill="#1E1E1E"/>
<g clip-path="url(#clip0_0_1)">
<mask id="mask0_0_1" style="mask-type:luminance" maskUnits="userSpaceOnUse" x="0" y="0" width="415" height="366">
<path d="M414.5 0.5H0.5V365.5H414.5V0.5Z" fill="white"/>
</mask>
<g mask="url(#mask0_0_1)">
<path d="M266.375 330.075L265.359 315.943C258.705 312.615 251.34 310.963 243.902 311.13C254.366 319.22 253.528 335.389 260.774 346.455C263.06 349.889 266.09 352.764 269.639 354.868C273.187 356.971 277.163 358.249 281.273 358.607L289.98 363.618C290.977 357.032 290.534 350.309 288.682 343.911C286.83 337.513 283.614 331.593 279.255 326.558C276.781 323.757 273.965 321.28 270.873 319.184C268.969 324.65 266.375 330.075 266.375 330.075Z" fill="#F2F2F2"/>
<path d="M214.506 365.5H413.861C414.03 365.5 414.193 365.433 414.312 365.313C414.432 365.193 414.499 365.031 414.499 364.861C414.499 364.692 414.432 364.53 414.312 364.41C414.193 364.29 414.03 364.223 413.861 364.223H214.506C214.336 364.223 214.174 364.29 214.054 364.41C213.934 364.53 213.867 364.692 213.867 364.861C213.867 365.031 213.934 365.193 214.054 365.313C214.174 365.433 214.336 365.5 214.506 365.5Z" fill="#CCCCCC"/>
<path d="M87.5793 212.992V213.266H87.7698C87.7008 213.178 87.6372 213.087 87.5793 212.992ZM89.0455 97.0483C75.7384 114.359 68.5354 135.59 68.5606 157.427C68.5636 160.753 68.7265 164.031 69.0492 167.263C69.0989 167.818 69.1568 168.373 69.2316 168.92C71.0805 184.99 76.8524 200.359 86.0387 213.671C86.3946 214.193 86.759 214.707 87.1238 215.221C91.0784 220.767 95.5931 225.891 100.596 230.512C140.875 267.717 203.679 265.214 240.872 224.924C241.444 224.319 241.991 223.706 242.529 223.092C257.753 205.846 266.51 183.844 267.304 160.851C268.097 137.857 260.876 115.303 246.878 97.0483C246.455 96.4931 246.025 95.938 245.577 95.3911C244.597 94.1565 243.581 92.9468 242.529 91.7619C241.991 91.1487 241.444 90.5356 240.872 89.9307C231.586 79.856 220.312 71.8166 207.763 66.3202C195.214 60.8238 181.661 57.9898 167.962 57.9971C167.009 57.9971 166.065 58.0137 165.12 58.0385C164.491 58.0551 163.861 58.0799 163.232 58.1131C149.131 58.7827 135.335 62.4543 122.766 68.8828C110.197 75.3113 99.1444 84.3486 90.3458 95.3911C89.8985 95.938 89.4682 96.4931 89.0455 97.0483ZM87.7698 213.266C87.7008 213.178 87.6372 213.087 87.5793 212.992V213.266H87.7698Z" fill="white"/>
<path d="M86.884 211.973L87.1655 211.402L108.255 168.92V168.912L109.075 167.263V167.255L143.915 97.0488V97.0405L144.735 95.3916L144.743 95.3834L162.387 59.8122L163.232 58.1136C163.862 58.0805 164.491 58.0556 165.121 58.0391L164.284 59.7294L146.591 95.3834V95.3916L145.771 97.0405V97.0488L110.019 169.086L110.011 169.094L88.9217 211.609L88.0933 213.266L87.9607 213.539L87.1242 215.221C86.7594 214.708 86.395 214.194 86.0391 213.672L86.884 211.973Z" fill="#3F3D56"/>
<path d="M109.663 167.263V168.92H69.2312C69.1564 168.373 69.0986 167.818 69.0488 167.263H109.663Z" fill="#3F3D56"/>
<path d="M172.496 180.189V178.532H212.928C213.002 179.079 213.06 179.634 213.11 180.189H172.496Z" fill="#3F3D56"/>
<path d="M206.312 174.416H207.969V214.859C207.422 214.934 206.868 214.992 206.312 215.042V174.416Z" fill="#3F3D56"/>
<path d="M246.877 97.0492C246.455 96.494 246.024 95.9389 245.577 95.392H242.528V91.7628C241.99 91.1497 241.443 90.5365 240.872 89.9316V95.392H90.3453C89.8979 95.9389 89.4676 96.494 89.0449 97.0492H240.872V224.925C241.443 224.32 241.99 223.707 242.529 223.093V97.0492H246.877Z" fill="#3F3D56"/>
<path d="M241.699 211.607H87.5762V213.265H241.699V211.607Z" fill="#3F3D56"/>
<path d="M87.5793 212.992V213.266H87.7698C87.7008 213.178 87.6372 213.087 87.5793 212.992ZM89.0455 97.0483C75.7384 114.359 68.5354 135.59 68.5606 157.427C68.5636 160.753 68.7265 164.031 69.0492 167.263C69.0989 167.818 69.1568 168.373 69.2316 168.92C71.0805 184.99 76.8524 200.359 86.0387 213.671C86.3946 214.193 86.759 214.707 87.1238 215.221C91.0784 220.767 95.5931 225.891 100.596 230.512C140.875 267.717 203.679 265.214 240.872 224.924C241.444 224.319 241.991 223.706 242.529 223.092C257.753 205.846 266.51 183.844 267.304 160.851C268.097 137.857 260.876 115.303 246.878 97.0483C246.455 96.4931 246.025 95.938 245.577 95.3911C244.597 94.1565 243.581 92.9468 242.529 91.7619C241.991 91.1487 241.444 90.5356 240.872 89.9307C231.586 79.856 220.312 71.8166 207.763 66.3202C195.214 60.8238 181.661 57.9898 167.962 57.9971C167.009 57.9971 166.065 58.0137 165.12 58.0385C164.491 58.0551 163.861 58.0799 163.232 58.1131C149.131 58.7827 135.335 62.4543 122.766 68.8828C110.197 75.3113 99.1444 84.3486 90.3458 95.3911C89.8985 95.938 89.4682 96.4931 89.0455 97.0483ZM70.8964 168.92C70.822 168.373 70.7641 167.818 70.7059 167.262C68.181 142.096 75.5024 116.93 91.1329 97.0482C91.5718 96.4931 92.011 95.9379 92.4665 95.3911C101.027 84.9459 111.661 76.3908 123.697 70.2667C135.732 64.1425 148.906 60.5825 162.387 59.8116C163.016 59.7785 163.646 59.7454 164.284 59.7288C165.501 59.6791 166.727 59.6542 167.962 59.6542C181.737 59.6461 195.357 62.5588 207.925 68.2003C220.492 73.8418 231.722 82.0839 240.872 92.3833C241.444 93.013 241.999 93.6428 242.529 94.2891C242.852 94.6536 243.158 95.0182 243.457 95.3911C243.912 95.9379 244.351 96.4931 244.79 97.0482C258.718 114.736 266.102 136.698 265.69 159.21C265.277 181.722 257.095 203.399 242.529 220.565C241.999 221.212 241.444 221.841 240.872 222.471C235.829 228.139 230.142 233.2 223.927 237.551C179.752 268.477 118.878 257.727 87.9603 213.539C87.8939 213.448 87.8277 213.357 87.7698 213.266C87.7008 213.178 87.6372 213.087 87.5793 212.992C87.3392 212.652 87.1072 212.313 86.8836 211.973C78.1825 199.111 72.6995 184.345 70.8964 168.92ZM87.7698 213.266C87.7008 213.178 87.6372 213.087 87.5793 212.992V213.266H87.7698Z" fill="#CCCCCC"/>
<path d="M282.443 264.223H183.273C182.06 264.221 180.898 263.739 180.04 262.881C179.183 262.023 178.701 260.861 178.699 259.648V211.312C178.701 210.099 179.183 208.936 180.04 208.079C180.898 207.221 182.06 206.739 183.273 206.737H282.443C283.656 206.739 284.818 207.221 285.676 208.079C286.533 208.936 287.015 210.099 287.017 211.312V259.648C287.015 260.861 286.533 262.023 285.676 262.881C284.818 263.739 283.656 264.221 282.443 264.223Z" fill="#CACACA"/>
<path d="M238.76 260.334C217.041 260.334 194.394 260.126 185.944 259.992C184.833 259.969 183.774 259.512 182.994 258.719C182.215 257.926 181.776 256.859 181.771 255.747V211.316C181.772 210.918 181.93 210.536 182.211 210.254C182.492 209.972 182.874 209.813 183.272 209.812H282.44C282.838 209.812 283.219 209.97 283.501 210.251C283.783 210.533 283.942 210.914 283.944 211.312V241.458C283.925 246.378 281.979 251.096 278.523 254.598C275.068 258.1 270.378 260.108 265.46 260.191C257.584 260.294 248.258 260.334 238.76 260.334Z" fill="#E4E4E4"/>
<path d="M272.203 237.587H191.513C190.989 237.586 190.479 237.424 190.052 237.122C189.624 236.82 189.3 236.394 189.124 235.901L179.991 210.272C179.855 209.889 179.812 209.48 179.867 209.077C179.922 208.675 180.073 208.291 180.306 207.959C180.54 207.627 180.85 207.356 181.21 207.169C181.571 206.982 181.97 206.884 182.376 206.883L283.241 206.742H283.244C283.664 206.742 284.077 206.846 284.447 207.045C284.816 207.244 285.131 207.532 285.362 207.883C285.593 208.233 285.733 208.635 285.77 209.054C285.808 209.472 285.741 209.893 285.575 210.279L274.534 236.049C274.339 236.506 274.014 236.895 273.6 237.168C273.185 237.441 272.699 237.587 272.203 237.587Z" fill="#CACACA"/>
<path d="M214.902 255.35H187.077C186.392 255.349 185.736 255.076 185.252 254.592C184.768 254.107 184.496 253.45 184.496 252.764C184.496 252.079 184.768 251.422 185.252 250.937C185.736 250.453 186.392 250.18 187.077 250.179H214.902C215.587 250.18 216.243 250.453 216.727 250.937C217.211 251.422 217.483 252.079 217.483 252.764C217.483 253.45 217.211 254.107 216.727 254.592C216.243 255.076 215.587 255.349 214.902 255.35Z" fill="#CACACA"/>
<path d="M232.707 243.907C236.197 243.907 239.026 241.078 239.026 237.587C239.026 234.096 236.197 231.267 232.707 231.267C229.218 231.267 226.389 234.096 226.389 237.587C226.389 241.078 229.218 243.907 232.707 243.907Z" fill="#3F3D56"/>
<path d="M32.4409 13.5692C47.9662 2.63258 67.199 -1.68695 85.9082 1.56091C104.617 4.80878 121.27 15.358 132.204 30.8878C154.972 63.2271 177.817 148.029 161.691 197.155C113.588 146.331 39.6889 141.049 15.1274 113.361C-11.1175 83.7758 0.111139 36.3437 32.4409 13.5692Z" fill="#5A9900"/>
<path d="M74.6394 86.7992C87.5354 86.7992 97.9897 76.3419 97.9897 63.4421C97.9897 50.5423 87.5354 40.085 74.6394 40.085C61.7434 40.085 51.2891 50.5423 51.2891 63.4421C51.2891 76.3419 61.7434 86.7992 74.6394 86.7992Z" fill="white"/>
<path d="M181.429 222.592C189.875 222.592 196.723 215.743 196.723 207.294C196.723 198.844 189.875 191.995 181.429 191.995C172.982 191.995 166.135 198.844 166.135 207.294C166.135 215.743 172.982 222.592 181.429 222.592Z" fill="#5A9900"/>
<path opacity="0.2" d="M49.6563 58.0528C48.1101 60.7016 47.1007 63.629 46.6856 66.668C46.2705 69.7071 46.4579 72.7981 47.2371 75.7647C48.0162 78.7312 49.3719 81.5152 51.2267 83.9577C53.0815 86.4002 55.399 88.4534 58.047 90C60.695 91.5466 63.6217 92.5563 66.6598 92.9715C69.6979 93.3867 72.788 93.1992 75.7538 92.4198C78.7195 91.6405 81.5027 90.2844 83.9444 88.4291C86.3862 86.5738 88.4388 84.2555 89.9849 81.6068C85.817 85.2642 80.4839 87.3186 74.9401 87.4022C69.3963 87.4858 64.0038 85.5931 59.7276 82.063C55.4514 78.5328 52.5707 73.5956 51.6011 68.135C50.6316 62.6745 51.6364 57.047 54.4358 52.2598C52.5406 53.9202 50.9266 55.8765 49.6563 58.0528Z" fill="#231F20"/>
<path opacity="0.2" d="M15.083 113.472C39.6445 141.16 113.544 146.441 161.646 197.265C163.148 192.617 164.303 187.864 165.104 183.045C117.025 136.842 47.24 131.002 23.509 104.251C2.26951 80.3078 5.57578 44.6781 24.7443 19.8867C-1.54501 44.2631 -8.96786 86.3593 15.083 113.472Z" fill="#231F20"/>
<path d="M320.38 211.298L310.464 208.276C306.147 213.482 302.568 228.563 302.568 228.563L288.997 250.623C288.27 250.968 287.648 251.498 287.191 252.16C286.735 252.822 286.461 253.593 286.397 254.395C286.333 255.196 286.482 256 286.827 256.727C287.173 257.453 287.704 258.075 288.366 258.531C289.029 258.986 289.799 259.259 290.601 259.322C291.402 259.385 292.206 259.236 292.932 258.889C293.657 258.543 294.279 258.011 294.733 257.348C295.188 256.685 295.46 255.913 295.522 255.111L316.062 230.168L320.38 211.298Z" fill="#FFB6B6"/>
<path d="M320.19 213.705L322.022 198.69L317.915 191.828C317.103 190.484 315.932 189.393 314.534 188.68C313.136 187.966 311.566 187.658 310.001 187.791C307.882 187.984 305.916 188.975 304.499 190.564C303.083 192.153 302.322 194.22 302.371 196.348C302.525 202.801 303.542 210.962 307.508 213.193L307.549 213.215L320.19 213.705Z" fill="#5A9900"/>
<path d="M348.203 349.384L342.257 352.254L328.355 330.678L337.132 326.44L348.203 349.384Z" fill="#FFB6B6"/>
<path d="M351.406 355.487L333.12 364.316L333.008 364.085C332.097 362.196 331.973 360.024 332.664 358.044C333.354 356.064 334.802 354.44 336.69 353.529L338.807 349.381L346.262 348.907L347.859 348.136L351.406 355.487Z" fill="#2F2E41"/>
<path d="M303.939 357.426L297.337 357.425L294.195 331.949L303.941 331.95L303.939 357.426Z" fill="#FFB6B6"/>
<path d="M304.172 364.316H283.867V364.059C283.867 361.962 284.7 359.952 286.182 358.469C287.664 356.987 289.674 356.154 291.77 356.153H291.771L295.48 353.339L302.4 356.154H304.172V364.316Z" fill="#2F2E41"/>
<path d="M297.397 239.272L289.829 291.465L291.89 298.332L289.188 303.196L293.156 339.804L291.545 343.352L296.045 346.128H305.203L305.689 307.457L307.951 301.78V298.651L312.555 275.07L313.618 311.779L315.088 314.615C320.564 327.043 327.941 331.113 333.156 340.402L342.314 335.441L342.122 331.74C343.962 330.808 339.36 328.085 338.917 326.07L338.116 322.463L332.773 311.394L332.571 307.496L334.033 280.984L333.345 245.281L321.332 236.093L297.397 239.272Z" fill="#2F2E41"/>
<path d="M309.284 175.965C315.855 175.965 321.182 170.637 321.182 164.064C321.182 157.491 315.855 152.163 309.284 152.163C302.713 152.163 297.387 157.491 297.387 164.064C297.387 170.637 302.713 175.965 309.284 175.965Z" fill="#FFB6B6"/>
<path d="M291.705 261.787L291.531 261.727L293.834 254.24C293.532 253.276 293.474 252.251 293.666 251.259C293.858 250.266 294.294 249.337 294.934 248.555C294.561 247.91 293.026 244.865 295.526 242.278C295.377 241.523 294.625 237.058 297.249 234.875C297.249 234.875 302.34 196.274 305.196 186.078C305.279 185.332 304.61 179.241 308.451 179.003C310.477 178.877 313.517 178.684 318.079 178.39C318.669 178.348 319.014 179.343 319.537 180.964C319.892 182.06 318.069 183.558 318.51 183.533L318.541 183.531L318.571 183.539C322.827 184.68 326.561 187.253 329.144 190.824C331.727 194.395 333.002 198.746 332.755 203.147L331.399 226.212C331.604 227.14 335.924 253.442 334.795 256.265C334.154 257.867 335.246 258.865 336.044 259.593C336.455 259.968 336.751 260.239 336.71 260.536C336.693 260.618 336.657 260.694 336.603 260.757C336.549 260.821 336.48 260.869 336.402 260.899C335.681 261.26 336.079 263.735 336.501 265.21L336.543 265.36L336.404 265.432C336.243 265.515 323.332 259.591 307.648 259.591C301.736 259.591 298.318 264.095 291.705 261.787Z" fill="#5A9900"/>
<path d="M318.713 171.381C318.59 171.318 318.481 171.229 318.394 171.12C318.307 171.012 318.243 170.887 318.208 170.752L318.038 170.061L318.56 170.605C318.839 170.374 319.052 170.073 319.178 169.733C319.304 169.394 319.338 169.027 319.277 168.67C319.216 168.313 319.061 167.978 318.83 167.7C318.598 167.421 318.297 167.209 317.957 167.084C317.728 167.007 317.492 166.95 317.253 166.913C317.003 166.873 316.757 166.813 316.516 166.735C315.953 166.491 315.468 166.098 315.112 165.599C314.757 165.099 314.545 164.511 314.499 163.9C314.422 162.821 314.542 161.737 314.852 160.701C309.602 161.508 304.249 161.347 299.057 160.226C298.257 160.058 297.491 159.756 296.79 159.335C295.508 158.574 294.441 157.5 293.688 156.213C293.589 156.039 293.548 155.838 293.571 155.639C293.593 155.441 293.679 155.255 293.815 155.108C293.91 155.006 294.025 154.924 294.152 154.868C294.28 154.812 294.418 154.782 294.557 154.782L294.367 154.267C294.307 154.106 294.292 153.932 294.321 153.764C294.351 153.595 294.425 153.437 294.535 153.306C294.646 153.175 294.789 153.075 294.95 153.018C295.112 152.96 295.285 152.946 295.454 152.978L296.127 153.104L296.062 152.656C296.038 152.49 296.058 152.319 296.12 152.162C296.181 152.006 296.283 151.868 296.414 151.762C296.545 151.656 296.702 151.587 296.868 151.56C297.035 151.533 297.205 151.551 297.363 151.61C297.507 151.664 297.662 151.687 297.816 151.676C297.97 151.664 298.119 151.62 298.255 151.546C298.39 151.471 298.507 151.368 298.599 151.244C298.69 151.119 298.754 150.977 298.785 150.825L299.016 149.7L299.04 149.641C300.179 147.742 302.368 146.362 305.044 145.855C307.432 145.402 309.869 145.631 312.227 145.852C313.226 145.872 314.208 146.12 315.098 146.577C315.501 146.809 315.831 147.149 316.052 147.558C316.273 147.967 316.376 148.43 316.35 148.894C318.671 148.18 321.162 149.603 322.393 151.395C323.858 153.527 324.094 156.201 324.137 158.292C324.238 163.236 323.22 167.28 321.111 170.314C320.809 170.829 320.352 171.236 319.805 171.475C319.666 171.522 319.52 171.545 319.373 171.545C319.143 171.546 318.916 171.49 318.713 171.381Z" fill="#2F2E41"/>
<path d="M319.142 218.241L310.409 212.654C304.848 216.502 297.333 230.056 297.333 230.056L278.312 247.633C277.52 247.769 276.777 248.112 276.159 248.626C275.541 249.14 275.07 249.809 274.792 250.563C274.514 251.318 274.44 252.132 274.577 252.925C274.714 253.717 275.057 254.46 275.572 255.077C276.087 255.695 276.755 256.166 277.51 256.443C278.265 256.72 279.079 256.793 279.871 256.655C280.663 256.517 281.405 256.173 282.022 255.657C282.638 255.142 283.109 254.472 283.385 253.717L309.893 235.245L319.142 218.241Z" fill="#FFB6B6"/>
<path d="M318.308 220.508L324.125 206.544L322.021 198.828C321.603 197.315 320.769 195.948 319.615 194.884C318.461 193.82 317.033 193.099 315.491 192.804C313.398 192.418 311.237 192.842 309.445 193.989C307.652 195.136 306.362 196.921 305.835 198.984C304.242 205.239 303.019 213.372 306.236 216.59L306.269 216.623L318.308 220.508Z" fill="#5A9900"/>
</g>
</g>
<defs>
<clipPath id="clip0_0_1">
<rect width="414" height="365" fill="white" transform="translate(0.5 0.5)"/>
</clipPath>
</defs>
</svg>
