<svg width="27" height="27" viewBox="0 0 27 27" fill="none" xmlns="http://www.w3.org/2000/svg">
<rect width="27" height="27" fill="#1E1E1E"/>
<path d="M16.3386 13.6039H13.6068M13.6068 13.6039H10.875M13.6068 13.6039V10.8721M13.6068 13.6039V16.3356" stroke="#1C274C" stroke-width="1.5" stroke-linecap="round"/>
<path d="M22.7119 13.606C22.7119 17.8985 22.7119 20.0449 21.3784 21.3784C20.0449 22.7119 17.8985 22.7119 13.606 22.7119C9.31337 22.7119 7.16707 22.7119 5.83354 21.3784C4.5 20.0449 4.5 17.8985 4.5 13.606C4.5 9.31337 4.5 7.16707 5.83354 5.83354C7.16707 4.5 9.31337 4.5 13.606 4.5C17.8985 4.5 20.0449 4.5 21.3784 5.83354C22.2651 6.72022 22.5622 7.96623 22.6617 9.96358" stroke="#1C274C" stroke-width="1.5" stroke-linecap="round"/>
</svg>
