<svg width="45" height="45" viewBox="0 0 45 45" fill="none" xmlns="http://www.w3.org/2000/svg">
<rect width="45" height="45" fill="#1E1E1E"/>
<g clip-path="url(#clip0_0_1)">
<path d="M40.5 0.5H4.5C2.29086 0.5 0.5 2.29086 0.5 4.5V40.5C0.5 42.7091 2.29086 44.5 4.5 44.5H40.5C42.7091 44.5 44.5 42.7091 44.5 40.5V4.5C44.5 2.29086 42.7091 0.5 40.5 0.5Z" fill="#5A9900"/>
<path d="M18.0431 11.885C18.1254 11.8837 18.2077 11.8823 18.2925 11.8809C19.2247 11.877 20.1408 12.0738 20.943 12.5615C21.0876 12.6075 21.0876 12.6075 21.207 12.6275C21.207 12.6711 21.207 12.7147 21.207 12.7595C21.2456 12.767 21.2842 12.7745 21.324 12.7822C21.9782 12.975 22.7455 13.794 23.121 14.3435C23.121 14.4089 23.121 14.4742 23.121 14.5415C23.1645 14.5415 23.2081 14.5415 23.253 14.5415C23.5944 15.0691 23.8436 15.5907 24.0408 16.1874C24.0602 16.246 24.0797 16.3045 24.0996 16.3648C24.4419 17.4404 24.4448 18.7414 24.111 19.8215C24.087 19.8992 24.063 19.9769 24.0383 20.0569C23.6554 21.2018 23.6554 21.2018 23.2865 21.5698C23.178 21.6702 23.178 21.6702 23.0975 21.8222C22.9669 22.0356 22.808 22.2132 22.6383 22.3955C22.6079 22.4291 22.5775 22.4626 22.5462 22.4971C22.3345 22.7268 22.1171 22.9339 21.867 23.1215C21.8016 23.1215 21.7363 23.1215 21.669 23.1215C21.669 23.1651 21.669 23.2087 21.669 23.2535C21.1506 23.584 20.6367 23.8392 20.0561 24.0414C20.0007 24.0608 19.9453 24.0802 19.8882 24.1002C18.8035 24.4647 17.4148 24.4547 16.323 24.1115C16.247 24.0891 16.171 24.0666 16.0927 24.0435C15.1615 23.7422 14.1288 23.1504 13.485 22.3955C13.485 22.352 13.485 22.3084 13.485 22.2635C13.4414 22.2635 13.3978 22.2635 13.353 22.2635C13.3462 22.2213 13.3394 22.1791 13.3323 22.1357C13.3174 22.0907 13.3024 22.0458 13.287 21.9995C13.2216 21.9778 13.1563 21.956 13.089 21.9335C12.9127 21.7061 12.772 21.4558 12.627 21.2075C12.5918 21.1481 12.5567 21.0886 12.5205 21.0273C11.7465 19.6093 11.6359 17.8284 12.0815 16.2884C12.2026 15.8921 12.3516 15.5563 12.561 15.2015C12.6112 15.0517 12.6112 15.0517 12.627 14.9375C12.6705 14.9375 12.7141 14.9375 12.759 14.9375C12.7756 14.8906 12.7921 14.8436 12.8092 14.7952C13.011 14.3319 13.3647 13.8809 13.749 13.5515C13.8143 13.5298 13.8796 13.508 13.947 13.4855C13.947 13.442 13.947 13.3984 13.947 13.3535C14.2856 13.0728 14.6684 12.8457 15.0561 12.6397C15.1514 12.5882 15.2454 12.5341 15.3376 12.4772C16.1686 11.9728 17.0941 11.8889 18.0431 11.885ZM17.973 14.6075C17.973 14.7164 17.973 14.8253 17.973 14.9375C17.9299 14.9392 17.8869 14.9409 17.8425 14.9427C17.4587 14.9676 17.2235 15.018 16.917 15.2675C16.8292 15.3268 16.8292 15.3268 16.7396 15.3872C16.4059 15.7028 16.3743 16.008 16.3601 16.4514C16.3713 16.9326 16.4575 17.2443 16.7932 17.5899C17.3436 17.9381 17.3436 17.9381 17.973 18.0395C17.973 18.8236 17.973 19.6077 17.973 20.4155C17.5945 20.2894 17.3093 20.1891 17.0655 19.8669C16.9685 19.6585 16.9077 19.45 16.851 19.2275C16.5569 19.2602 16.5569 19.2602 16.257 19.2935C16.2895 19.7487 16.3698 20.1361 16.7056 20.4661C17.0959 20.7778 17.47 20.9021 17.973 20.8775C17.973 21.1171 17.973 21.3567 17.973 21.6035C18.0819 21.6035 18.1908 21.6035 18.303 21.6035C18.303 21.364 18.303 21.1244 18.303 20.8775C18.3561 20.883 18.4091 20.8884 18.4638 20.894C18.777 20.8721 19.0147 20.752 19.293 20.6135C19.293 20.57 19.293 20.5264 19.293 20.4815C19.3329 20.465 19.3728 20.4485 19.4139 20.4315C19.5786 20.3371 19.6376 20.2555 19.7343 20.0938C19.7618 20.049 19.7893 20.0043 19.8176 19.9582C20.0163 19.5667 20.0003 19.1027 19.9035 18.683C19.6945 18.2234 19.4231 17.9223 18.963 17.7095C18.7452 17.666 18.5274 17.6224 18.303 17.5775C18.3247 16.8806 18.3465 16.1836 18.369 15.4655C18.9598 15.761 18.9665 15.7724 19.161 16.3235C19.357 16.3018 19.553 16.28 19.755 16.2575C19.721 15.909 19.6062 15.6918 19.425 15.3995C19.3814 15.3995 19.3378 15.3995 19.293 15.3995C19.293 15.356 19.293 15.3124 19.293 15.2675C19.2494 15.2675 19.2058 15.2675 19.161 15.2675C19.161 15.224 19.161 15.1804 19.161 15.1355C18.9655 15.0252 18.8065 14.982 18.5835 14.9623C18.5043 14.9549 18.5043 14.9549 18.4236 14.9473C18.3838 14.9441 18.344 14.9409 18.303 14.9375C18.303 14.8286 18.303 14.7197 18.303 14.6075C18.1941 14.6075 18.0852 14.6075 17.973 14.6075Z" fill="white"/>
<path d="M26.2244 21.0102C28.0676 20.9526 29.4663 21.4639 30.8444 22.7262C31.1126 22.9903 31.2812 23.2103 31.3724 23.5842C31.4159 23.5842 31.4595 23.5842 31.5044 23.5842C32.3543 25.0983 32.525 26.6248 32.1063 28.305C31.6992 29.7378 30.7059 30.861 29.4584 31.6362C28.2238 32.3186 26.6722 32.5138 25.3004 32.1642C25.2435 32.1521 25.1867 32.14 25.1281 32.1276C24.5292 31.9874 23.9634 31.7129 23.4524 31.3722C23.4524 31.3286 23.4524 31.2851 23.4524 31.2402C23.4145 31.2339 23.3766 31.2276 23.3376 31.2211C23.1552 31.1638 23.0545 31.0782 22.912 30.9515C22.8661 30.9115 22.8203 30.8715 22.773 30.8303C22.6604 30.7122 22.6604 30.7122 22.5944 30.5142C22.5372 30.4897 22.5372 30.4897 22.4789 30.4647C22.2549 30.3403 22.1269 30.1402 22.0004 29.9202C22.0004 29.8766 22.0004 29.8331 22.0004 29.7882C21.9568 29.7882 21.9132 29.7882 21.8684 29.7882C21.1822 28.6328 20.9822 27.5432 21.0104 26.2242C21.1574 26.1498 21.3045 26.0756 21.4517 26.0015C21.493 25.9805 21.5343 25.9596 21.5769 25.938C21.7522 25.8499 21.9264 25.7654 22.1089 25.6931C22.2819 25.6231 22.4346 25.5368 22.5944 25.4405C22.6488 25.408 22.7033 25.3755 22.7594 25.342C22.9342 25.2278 23.0929 25.1025 23.2544 24.9702C23.3057 24.9305 23.3571 24.8907 23.4101 24.8498C24.0765 24.3584 24.0765 24.3584 24.5744 23.7162C24.6179 23.7162 24.6615 23.7162 24.7064 23.7162C24.7237 23.6789 24.7411 23.6417 24.759 23.6033C24.8449 23.4397 24.9446 23.2967 25.0529 23.147C25.523 22.4811 25.9301 21.7721 26.2244 21.0102ZM26.5544 23.4522C26.5544 23.5611 26.5544 23.67 26.5544 23.7822C26.5168 23.7839 26.4793 23.7856 26.4407 23.7874C25.9767 23.8214 25.6709 23.9257 25.3457 24.2772C25.0529 24.711 25.034 25.1114 25.1024 25.6302C25.2047 25.8412 25.3302 25.9962 25.4984 26.1582C25.5419 26.2018 25.5855 26.2453 25.6304 26.2902C25.6957 26.2902 25.761 26.2902 25.8284 26.2902C25.8284 26.3338 25.8284 26.3773 25.8284 26.4222C26.1048 26.5523 26.2243 26.5542 26.5544 26.5542C26.5544 27.2729 26.5544 27.9917 26.5544 28.7322C25.8631 28.473 25.8631 28.473 25.7211 28.1836C25.6485 27.9887 25.5954 27.8148 25.5644 27.6102C25.3901 27.632 25.2159 27.6538 25.0364 27.6762C24.9372 27.9738 25.0447 28.1884 25.1684 28.4682C25.3543 28.7777 25.6224 29.0009 25.9604 29.1282C26.1604 29.1662 26.3503 29.1817 26.5544 29.1942C26.5544 29.412 26.5544 29.6298 26.5544 29.8542C26.6415 29.8542 26.7286 29.8542 26.8184 29.8542C26.8184 29.6364 26.8184 29.4186 26.8184 29.1942C26.8932 29.1915 26.9681 29.1888 27.0452 29.186C27.4894 29.1293 27.8567 28.8622 28.1342 28.5177C28.3382 28.195 28.4397 27.8295 28.375 27.4499C28.2065 26.8997 27.9443 26.5961 27.4541 26.3034C27.2509 26.2017 27.2509 26.2017 26.8844 26.1582C26.8626 25.5048 26.8408 24.8514 26.8184 24.1782C27.4124 24.4752 27.4124 24.4752 27.5444 24.7557C27.5702 24.8085 27.5961 24.8612 27.6227 24.9156C27.6404 24.9554 27.6581 24.9952 27.6764 25.0362C27.9377 25.0035 27.9377 25.0035 28.2044 24.9702C28.0965 24.5755 27.9867 24.2635 27.6764 23.9802C27.3867 23.8434 27.1391 23.7822 26.8184 23.7822C26.8184 23.6733 26.8184 23.5644 26.8184 23.4522C26.7312 23.4522 26.6441 23.4522 26.5544 23.4522Z" fill="white"/>
<path d="M21.9997 10.7798C21.9997 10.8234 21.9997 10.8669 21.9997 10.9118C22.057 10.9233 22.057 10.9233 22.1154 10.935C22.2743 10.9809 22.3854 11.0443 22.5235 11.1346C22.6775 11.2344 22.8295 11.3291 22.9897 11.4192C23.055 11.4621 23.055 11.4621 23.1217 11.5058C23.1217 11.5494 23.1217 11.5929 23.1217 11.6378C23.1604 11.6558 23.1992 11.6737 23.2392 11.6922C23.6701 11.9205 24.0014 12.3161 24.3303 12.6691C24.3813 12.7235 24.3813 12.7235 24.4334 12.7791C24.6194 12.9818 24.7678 13.1791 24.9037 13.4198C25.0872 13.6974 25.0872 13.6974 25.273 13.9735C25.4872 14.299 25.6274 14.6388 25.7617 15.0038C25.782 15.0584 25.8024 15.1129 25.8234 15.1691C26.2803 16.4224 26.4334 17.6383 26.2897 18.9638C26.2829 19.0433 26.2762 19.1227 26.2693 19.2046C26.1331 20.5218 25.6054 21.6849 24.9037 22.7918C24.8684 22.8546 24.8332 22.9174 24.7969 22.9821C24.7668 23.0282 24.7367 23.0743 24.7057 23.1218C24.6621 23.1218 24.6185 23.1218 24.5737 23.1218C24.5532 23.1626 24.5328 23.2035 24.5118 23.2456C24.4664 23.3363 24.421 23.4271 24.3757 23.5178C24.3321 23.5178 24.2885 23.5178 24.2437 23.5178C24.2266 23.5563 24.2096 23.5947 24.1921 23.6343C24.1052 23.7937 24.0093 23.9018 23.8807 24.0293C23.8405 24.0698 23.8003 24.1103 23.759 24.152C23.6497 24.2438 23.6497 24.2438 23.5177 24.2438C23.5177 24.2874 23.5177 24.3309 23.5177 24.3758C23.1964 24.6732 22.8002 24.8976 22.4305 25.1284C22.3049 25.2077 22.1824 25.2919 22.0615 25.3782C21.7909 25.5452 21.5047 25.6505 21.2077 25.7618C21.1446 25.7872 21.1446 25.7872 21.0803 25.8131C19.2736 26.5304 17.2185 26.5737 15.3997 25.8938C15.2994 25.8631 15.1991 25.8328 15.0985 25.8031C14.2034 25.5036 13.4358 24.9732 12.7189 24.3727C12.5592 24.2375 12.5592 24.2375 12.3637 24.1118C12.3637 24.0682 12.3637 24.0247 12.3637 23.9798C12.3201 23.9798 12.2765 23.9798 12.2317 23.9798C12.2317 23.9362 12.2317 23.8927 12.2317 23.8478C12.1881 23.8478 12.1445 23.8478 12.0997 23.8478C11.3041 22.9955 10.6161 21.9249 10.2517 20.8118C10.2311 20.7507 10.2311 20.7507 10.2102 20.6884C9.90896 19.7687 9.85171 18.8712 9.85565 17.9078C9.85583 17.8481 9.85601 17.7885 9.8562 17.727C9.86271 17.1006 9.92151 16.5373 10.1173 15.9394C10.1686 15.782 10.2086 15.6327 10.2447 15.472C10.3139 15.1886 10.4305 14.9438 10.5652 14.6862C10.6002 14.6177 10.6002 14.6177 10.636 14.5479C10.7052 14.4135 10.7752 14.2796 10.8457 14.1458C10.8831 14.0746 10.9205 14.0034 10.9591 13.93C11.2084 13.4652 11.4557 13.0642 11.8357 12.6938C11.8833 12.6325 11.9309 12.5713 11.98 12.5082C12.0195 12.4605 12.059 12.4129 12.0997 12.3638C12.1432 12.3638 12.1868 12.3638 12.2317 12.3638C12.2317 12.3202 12.2317 12.2767 12.2317 12.2318C12.2752 12.2318 12.3188 12.2318 12.3637 12.2318C12.3637 12.1882 12.3637 12.1447 12.3637 12.0998C12.5925 11.8862 12.8424 11.6976 13.0897 11.5058C13.1418 11.4651 13.194 11.4245 13.2477 11.3826C15.7877 9.50461 19.2228 9.41341 21.9997 10.7798ZM15.0037 12.2318C14.9462 12.2547 14.8888 12.2776 14.8296 12.3012C13.8551 12.6926 12.8591 13.7605 12.3637 14.6738C12.3184 14.8499 12.3184 14.8499 12.2977 15.0038C12.2541 15.0038 12.2105 15.0038 12.1657 15.0038C11.3593 16.8676 11.1942 18.6901 11.9111 20.6129C12.0002 20.8223 12.1156 21.0122 12.2317 21.2078C12.2812 21.3687 12.2812 21.3687 12.2977 21.4718C12.3412 21.4718 12.3848 21.4718 12.4297 21.4718C12.4433 21.5154 12.4569 21.5589 12.4709 21.6038C12.5959 21.8765 12.7719 22.0957 12.9577 22.3298C12.9889 22.37 13.0201 22.4103 13.0523 22.4517C13.1273 22.5459 13.2071 22.6363 13.2877 22.7258C13.3312 22.7258 13.3748 22.7258 13.4197 22.7258C13.4353 22.7643 13.451 22.8027 13.4671 22.8423C13.5697 23.0212 13.6849 23.1129 13.8487 23.2373C13.9273 23.298 13.9273 23.298 14.0075 23.36C14.1363 23.464 14.1363 23.464 14.2777 23.4518C14.2777 23.4954 14.2777 23.5389 14.2777 23.5838C14.3152 23.6046 14.3527 23.6253 14.3913 23.6467C14.4423 23.675 14.4933 23.7032 14.5458 23.7323C14.6204 23.7737 14.6204 23.7737 14.6966 23.8158C14.8292 23.89 14.9605 23.9666 15.0911 24.0443C15.334 24.183 15.5833 24.2866 15.8452 24.3841C15.8874 24.4006 15.9296 24.4172 15.973 24.4343C16.6561 24.6912 17.336 24.7283 18.0603 24.7264C18.1807 24.728 18.1807 24.728 18.3035 24.7296C19.0519 24.73 19.7561 24.6005 20.4569 24.3387C20.5313 24.3114 20.6056 24.2841 20.6822 24.2559C20.8406 24.1926 20.9911 24.1255 21.1417 24.0458C21.1417 24.0022 21.1417 23.9587 21.1417 23.9138C21.1879 23.908 21.2342 23.9022 21.2819 23.8963C21.5141 23.837 21.6696 23.7347 21.8677 23.6003C21.9677 23.5334 21.9677 23.5334 22.0698 23.4652C22.2636 23.3198 22.4262 23.1645 22.5937 22.9898C22.6315 22.9535 22.6694 22.9171 22.7084 22.8797C23.2014 22.4038 23.6048 21.8855 23.9137 21.2738C23.9462 21.2119 23.9788 21.1499 24.0124 21.0861C24.519 20.1058 24.73 19.2099 24.7222 18.1058C24.7227 18.0342 24.7232 17.9625 24.7237 17.8887C24.7219 17.1391 24.6132 16.4749 24.322 15.7834C24.3002 15.729 24.2784 15.6746 24.2559 15.6186C24.0461 15.1068 23.7886 14.6288 23.4723 14.1747C23.4339 14.1188 23.3955 14.0629 23.356 14.0053C23.3222 13.9645 23.2885 13.9238 23.2537 13.8818C23.2101 13.8818 23.1665 13.8818 23.1217 13.8818C23.1067 13.8328 23.0917 13.7838 23.0763 13.7333C22.9719 13.5146 22.8531 13.4306 22.6597 13.2878C22.612 13.2388 22.5644 13.1898 22.5153 13.1393C22.4075 13.0085 22.4075 13.0085 22.2637 13.0238C22.2637 12.9802 22.2637 12.9367 22.2637 12.8918C22.1392 12.7915 22.0161 12.7008 21.8842 12.6113C21.8451 12.5848 21.8061 12.5583 21.7659 12.5309C19.7942 11.2163 17.0743 11.0169 15.0037 12.2318Z" fill="white"/>
<path d="M26.6187 19.1615C28.0688 19.0613 29.419 19.5466 30.6447 20.2835C30.7037 20.3187 30.7627 20.354 30.8234 20.3903C31.0107 20.5032 31.1933 20.6176 31.3707 20.7455C31.3707 20.7891 31.3707 20.8326 31.3707 20.8775C31.4238 20.9 31.4238 20.9 31.478 20.9229C32.6723 21.5829 33.4888 23.2099 33.8813 24.4745C34.1856 25.5828 34.2138 26.7276 34.0561 27.8611C34.0484 27.9178 34.0406 27.9745 34.0326 28.0329C33.8602 29.1802 33.3755 30.3476 32.6247 31.2395C32.5812 31.2395 32.5376 31.2395 32.4927 31.2395C32.4791 31.2844 32.4655 31.3294 32.4515 31.3756C32.2264 31.8566 31.8086 32.2054 31.3707 32.4935C31.3272 32.4935 31.2836 32.4935 31.2387 32.4935C31.2243 32.532 31.2098 32.5704 31.1949 32.6101C31.0785 32.8047 30.9433 32.885 30.752 33.005C30.6889 33.0455 30.6257 33.086 30.5607 33.1277C30.3807 33.2195 30.3807 33.2195 30.1167 33.2195C30.1167 33.2631 30.1167 33.3066 30.1167 33.3515C28.4691 34.2783 26.3039 34.3421 24.5067 33.8795C23.6036 33.6127 22.836 33.1685 22.083 32.6057C21.9694 32.5209 21.8527 32.4402 21.7347 32.3615C21.7347 32.318 21.7347 32.2744 21.7347 32.2295C21.6963 32.2125 21.6578 32.1955 21.6182 32.178C21.4588 32.091 21.3508 31.9952 21.2232 31.8665C21.1827 31.8264 21.1422 31.7862 21.1005 31.7448C21.0087 31.6355 21.0087 31.6355 21.0087 31.5035C20.9652 31.5035 20.9216 31.5035 20.8767 31.5035C20.4692 31.0264 20.1806 30.4709 19.8867 29.9195C19.8538 29.8583 19.8209 29.797 19.787 29.7339C19.383 28.9184 19.1452 27.9256 19.1566 27.0155C19.1572 26.9529 19.1578 26.8903 19.1584 26.8258C19.1592 26.7795 19.16 26.7332 19.1607 26.6855C19.6326 26.5387 20.117 26.4215 20.6127 26.4215C20.6192 26.495 20.6257 26.5685 20.6323 26.6443C20.779 28.1896 21.1976 29.5741 22.2955 30.7262C22.3947 30.8435 22.3947 30.8435 22.3947 30.9755C22.4324 30.9928 22.4701 31.0101 22.509 31.0279C22.6697 31.1134 22.8013 31.2123 22.9434 31.3261C22.9957 31.3672 23.048 31.4083 23.1019 31.4507C23.1909 31.5208 23.2798 31.591 23.3685 31.6616C24.4975 32.5185 26.1232 32.7871 27.5048 32.6044C28.1182 32.4969 28.6961 32.2975 29.2587 32.0315C29.3081 32.0091 29.3574 31.9866 29.4083 31.9635C29.6361 31.8556 29.8389 31.7348 30.0425 31.586C30.2487 31.4375 30.2487 31.4375 30.3807 31.4375C30.4025 31.3722 30.4243 31.3068 30.4467 31.2395C30.4862 31.2205 30.5257 31.2014 30.5664 31.1818C30.7574 31.0835 30.8461 30.9476 30.9747 30.7775C31.0407 30.7115 31.1067 30.6455 31.1727 30.5795C31.2163 30.5142 31.2599 30.4488 31.3047 30.3815C31.3483 30.3815 31.3919 30.3815 31.4367 30.3815C31.4517 30.3366 31.4667 30.2917 31.4821 30.2454C31.5687 30.0515 31.5687 30.0515 31.7214 29.8453C32.3841 28.9428 32.6513 27.7406 32.6495 26.6401C32.6493 26.5361 32.6493 26.5361 32.6492 26.4299C32.6403 25.8607 32.5525 25.3759 32.3607 24.8375C32.3394 24.7714 32.318 24.7053 32.296 24.6372C32.0266 23.8376 31.5105 22.8633 30.8262 22.3501C30.7881 22.3216 30.75 22.293 30.7107 22.2635C30.7107 22.22 30.7107 22.1764 30.7107 22.1315C30.6672 22.1315 30.6236 22.1315 30.5787 22.1315C30.5787 22.088 30.5787 22.0444 30.5787 21.9995C30.5134 21.9995 30.4481 21.9995 30.3807 21.9995C30.3807 21.956 30.3807 21.9124 30.3807 21.8675C30.3459 21.8509 30.3111 21.8343 30.2753 21.8173C30.1159 21.7351 29.9627 21.6448 29.8087 21.5529C28.7322 20.9172 27.6535 20.7146 26.4207 20.6135C26.4302 20.5481 26.4396 20.4827 26.4494 20.4153C26.4868 20.1529 26.5221 19.8903 26.5569 19.6276C26.5629 19.5825 26.5689 19.5374 26.575 19.4909C26.5896 19.3811 26.6042 19.2713 26.6187 19.1615Z" fill="white"/>
<path d="M18.3027 18.1719C18.6796 18.2472 18.6796 18.2472 18.872 18.3575C18.9096 18.3783 18.9472 18.3992 18.9859 18.4207C19.1266 18.5257 19.205 18.6125 19.2927 18.7659C19.319 18.9822 19.319 18.9822 19.3175 19.2238C19.318 19.3033 19.3185 19.3828 19.319 19.4648C19.2793 19.8043 19.1498 19.966 18.9091 20.2014C18.6987 20.3499 18.6987 20.3499 18.3027 20.4159C18.3027 19.6754 18.3027 18.9348 18.3027 18.1719Z" fill="white"/>
<path d="M17.9725 15.4004C17.9725 16.0756 17.9725 16.7508 17.9725 17.4464C17.4993 17.3788 17.3454 17.3261 17.0485 16.9844C16.8866 16.674 16.893 16.3919 16.9825 16.0604C17.1419 15.729 17.3276 15.596 17.649 15.4442C17.7745 15.4004 17.7745 15.4004 17.9725 15.4004Z" fill="white"/>
<path d="M26.8184 26.6855C27.2016 26.7622 27.4729 26.8648 27.7382 27.1558C27.8619 27.4905 27.8803 27.823 27.748 28.1587C27.579 28.4542 27.4127 28.6191 27.0824 28.7315C26.9952 28.7315 26.9081 28.7315 26.8184 28.7315C26.8184 28.0564 26.8184 27.3812 26.8184 26.6855Z" fill="white"/>
<path d="M26.5529 24.1777C26.5529 24.8094 26.5529 25.441 26.5529 26.0917C26.2573 26.0326 26.0757 25.9899 25.8269 25.8277C25.6469 25.5156 25.5899 25.2615 25.6289 24.9037C25.7929 24.4635 26.0742 24.1777 26.5529 24.1777Z" fill="white"/>
<path d="M13.9478 13.3535C13.9914 13.3535 14.035 13.3535 14.0798 13.3535C13.9748 13.6265 13.7759 13.8308 13.5518 14.0135C13.5083 14.0135 13.4647 14.0135 13.4198 14.0135C13.3763 14.1006 13.3327 14.1878 13.2878 14.2775C13.2225 14.2775 13.1572 14.2775 13.0898 14.2775C13.6363 13.6451 13.6363 13.6451 13.8158 13.4855C13.8594 13.4855 13.903 13.4855 13.9478 13.4855C13.9478 13.442 13.9478 13.3984 13.9478 13.3535Z" fill="white"/>
<path d="M12.5628 15.2021C12.6063 15.2893 12.6499 15.3764 12.6948 15.4661C12.6294 15.5097 12.5641 15.5533 12.4968 15.5981C12.475 15.6635 12.4532 15.7288 12.4308 15.7961C12.3872 15.7961 12.3436 15.7961 12.2988 15.7961C12.3686 15.5715 12.4313 15.3993 12.5628 15.2021Z" fill="white"/>
</g>
<defs>
<clipPath id="clip0_0_1">
<rect width="44" height="44" fill="white" transform="translate(0.5 0.5)"/>
</clipPath>
</defs>
</svg>
