<svg width="45" height="45" viewBox="0 0 45 45" fill="none" xmlns="http://www.w3.org/2000/svg">
<rect width="45" height="45" fill="#1E1E1E"/>
<g clip-path="url(#clip0_0_1)">
<path d="M40.5 0.5H4.5C2.29086 0.5 0.5 2.29086 0.5 4.5V40.5C0.5 42.7091 2.29086 44.5 4.5 44.5H40.5C42.7091 44.5 44.5 42.7091 44.5 40.5V4.5C44.5 2.29086 42.7091 0.5 40.5 0.5Z" fill="#5A9900"/>
<path d="M33.3613 16.2001C33.3613 16.2397 33.3613 16.2793 33.3613 16.3201C33.4336 16.3275 33.4336 16.3275 33.5075 16.3351C33.9523 16.4287 34.3515 16.6628 34.7563 16.8639C34.7974 16.8843 34.8385 16.9047 34.8809 16.9258C34.9594 16.9651 35.0375 17.0051 35.1153 17.0458C35.2081 17.0933 35.3031 17.1364 35.3984 17.1786C35.5213 17.2801 35.5213 17.2801 35.5569 17.4639C35.4988 19.9022 34.9868 22.439 33.6352 24.5099C33.5338 24.6589 33.5338 24.6589 33.4813 24.8401C33.4417 24.8401 33.4021 24.8401 33.3613 24.8401C33.3389 24.9198 33.3389 24.9198 33.316 25.0011C33.2374 25.2104 33.1495 25.3347 33.005 25.5039C32.9562 25.5613 32.9074 25.6188 32.8571 25.678C32.8057 25.7381 32.7542 25.7982 32.7013 25.8601C32.6529 25.9196 32.6046 25.9791 32.5548 26.0403C31.9265 26.8113 31.2228 27.5489 30.4213 28.1401C30.3398 28.204 30.3398 28.204 30.2567 28.2693C29.5377 28.8271 28.7614 29.2536 27.9446 29.6491C27.8108 29.7151 27.6802 29.7868 27.5488 29.8576C26.8757 30.1908 26.132 30.3753 25.4075 30.5589C25.3176 30.5818 25.3176 30.5818 25.2259 30.6051C24.8776 30.6908 24.5385 30.7504 24.1813 30.7801C24.1264 30.7852 24.0716 30.7904 24.0152 30.7957C22.2663 30.9573 20.6321 30.905 18.9238 30.4576C18.8203 30.4314 18.8203 30.4314 18.7147 30.4046C18.3428 30.3081 17.9889 30.1973 17.636 30.045C17.5232 29.9928 17.5232 29.9928 17.4013 30.0001C16.6882 31.348 16.0172 32.687 15.5413 34.1401C15.0012 33.9388 14.4938 33.6818 13.9813 33.4201C13.9417 33.4003 13.9021 33.3805 13.8613 33.3601C13.9145 33.0881 14.0517 32.8706 14.1859 32.631C14.2416 32.531 14.2964 32.4305 14.3485 32.3286C14.5283 31.9815 14.7551 31.6756 14.9882 31.3632C15.1587 31.1343 15.3217 30.9031 15.4775 30.6639C15.7252 30.2865 15.9961 29.9286 16.2685 29.5691C16.4101 29.3822 16.5483 29.1932 16.685 29.0026C17.3651 28.0645 18.1009 27.1801 18.9301 26.3704C19.1037 26.2005 19.2724 26.032 19.4263 25.8439C19.5373 25.7092 19.6418 25.6 19.775 25.4889C19.9277 25.3592 20.0774 25.2275 20.2238 25.0909C20.2556 25.0613 20.2874 25.0317 20.3201 25.0012C20.3831 24.9423 20.4459 24.8833 20.5085 24.824C20.6634 24.6798 20.8046 24.5611 21.0013 24.4801C21.0013 24.4405 21.0013 24.4009 21.0013 24.3601C21.1329 24.2552 21.2651 24.157 21.4025 24.0601C21.4851 24.0008 21.5677 23.9414 21.6502 23.882C21.6922 23.8518 21.7341 23.8217 21.7773 23.7906C22.0271 23.6083 22.2696 23.4165 22.513 23.2257C22.9224 22.9201 22.9224 22.9201 23.1013 22.9201C23.1013 22.8805 23.1013 22.8409 23.1013 22.8001C23.2 22.7271 23.2 22.7271 23.3384 22.6457C23.3889 22.6157 23.4394 22.5857 23.4914 22.5549C23.5458 22.5232 23.6002 22.4915 23.6563 22.4589C23.7112 22.4264 23.7661 22.394 23.8227 22.3606C23.9324 22.296 24.0421 22.2316 24.152 22.1674C24.2751 22.0954 24.3978 22.0229 24.5202 21.9498C24.8797 21.7365 25.245 21.5422 25.6213 21.3601C24.3062 21.7861 23.0704 22.2783 21.8757 22.9768C21.7027 23.0779 21.5266 23.172 21.3498 23.2663C20.9879 23.4631 20.6456 23.6843 20.3038 23.9139C20.2412 23.9558 20.1786 23.9976 20.1141 24.0408C19.6118 24.3799 19.1278 24.7378 18.6522 25.113C18.5116 25.2234 18.3694 25.3317 18.2272 25.44C17.6624 25.8708 17.1184 26.3178 16.5957 26.7988C16.4213 26.9584 16.2432 27.1132 16.0644 27.2678C15.9682 27.3539 15.8782 27.4433 15.7888 27.5364C15.6613 27.6601 15.6613 27.6601 15.5413 27.6601C15.6802 26.171 15.9752 24.8417 16.5613 23.4601C16.578 23.4198 16.5948 23.3795 16.6121 23.3379C16.8223 22.834 17.047 22.3615 17.3413 21.9001C17.3989 21.8014 17.4564 21.7027 17.5138 21.6039C18.198 20.4688 19.1492 19.3943 20.1613 18.5401C20.2139 18.4956 20.2666 18.4512 20.3209 18.4053C20.4613 18.3001 20.4613 18.3001 20.5813 18.3001C20.5813 18.2605 20.5813 18.2209 20.5813 18.1801C20.6596 18.125 20.7387 18.0708 20.8198 18.0198C20.969 17.9219 21.1098 17.8147 21.2525 17.7076C21.5248 17.5083 21.8018 17.3421 22.1007 17.1861C22.2567 17.1025 22.4044 17.0112 22.5538 16.9164C22.8972 16.7071 23.2649 16.5778 23.6413 16.4401C23.7106 16.4104 23.7799 16.3807 23.8513 16.3501C23.9206 16.3204 23.9899 16.2907 24.0613 16.2601C24.1313 16.228 24.1313 16.228 24.2028 16.1952C27.0153 14.998 30.5216 15.2337 33.3613 16.2001Z" fill="white"/>
<path d="M11.7376 10.9C11.8285 10.8993 11.8285 10.8993 11.9211 10.8985C12.1163 10.8973 12.3114 10.8973 12.5066 10.8977C12.6062 10.8977 12.6062 10.8977 12.7078 10.8978C13.6709 10.9 14.602 10.9216 15.5404 11.1602C15.5908 11.1727 15.6412 11.1852 15.6931 11.1982C16.048 11.2895 16.3944 11.3998 16.7404 11.5202C16.7988 11.5404 16.8572 11.5606 16.9174 11.5814C17.8713 11.9156 18.7369 12.3027 19.5831 12.8573C19.6913 12.9281 19.8006 12.9972 19.9108 13.0649C20.2272 13.2598 20.5106 13.4617 20.781 13.7172C20.8842 13.8136 20.8842 13.8136 21.0604 13.8602C21.1617 13.9588 21.2616 14.059 21.3604 14.1602C21.4439 14.2251 21.4439 14.2251 21.5291 14.2914C21.5724 14.3273 21.6157 14.3632 21.6604 14.4002C21.6604 14.4398 21.6604 14.4794 21.6604 14.5202C21.7 14.5202 21.7396 14.5202 21.7804 14.5202C21.7804 14.5598 21.7804 14.5994 21.7804 14.6402C21.8398 14.66 21.8992 14.6798 21.9604 14.7002C22.0508 14.7899 22.0508 14.7899 22.1479 14.9064C22.321 15.1107 22.4971 15.3114 22.6766 15.5102C22.7461 15.5872 22.7461 15.5872 22.817 15.6658C22.8682 15.7224 22.8682 15.7224 22.9204 15.7802C22.8604 15.9602 22.8604 15.9602 22.7308 16.0375C22.6733 16.064 22.6158 16.0904 22.5566 16.1177C21.7401 16.5114 20.9971 16.9648 20.2804 17.5202C20.2248 17.5629 20.1692 17.6057 20.1119 17.6498C19.5568 18.0853 19.0473 18.563 18.5578 19.0703C18.4741 19.1557 18.3875 19.2382 18.3004 19.3202C18.2608 19.3202 18.2212 19.3202 18.1804 19.3202C18.0997 19.2006 18.0198 19.0805 17.9404 18.9602C17.8419 18.8587 17.7416 18.759 17.6404 18.6602C17.5684 18.5877 17.4965 18.5151 17.4247 18.4424C17.3466 18.3638 17.2685 18.2851 17.1904 18.2064C17.1513 18.1669 17.1123 18.1273 17.072 18.0865C16.8702 17.8837 16.6682 17.6942 16.4404 17.5202C16.3764 17.4666 16.3127 17.4129 16.2491 17.3589C16.0957 17.2222 16.0957 17.2222 15.9604 17.1602C15.9604 17.1206 15.9604 17.081 15.9604 17.0402C15.8963 17.0179 15.8963 17.0179 15.831 16.9952C15.5801 16.8849 15.3803 16.7183 15.1635 16.5527C15.0114 16.4478 14.8741 16.3806 14.7004 16.3202C14.7388 16.3615 14.7773 16.4029 14.8169 16.4456C15.6186 17.3166 15.6186 17.3166 15.8404 17.7602C15.9143 17.8722 15.9894 17.9833 16.0654 18.0939C16.2604 18.3837 16.4355 18.6771 16.5983 18.9859C16.6497 19.0824 16.7028 19.178 16.7587 19.2719C16.978 19.6412 17.315 20.2177 17.2647 20.6575C17.2204 20.7602 17.2204 20.7602 17.1191 20.8839C16.9416 21.1094 16.815 21.3503 16.6818 21.604C16.609 21.7417 16.5349 21.8788 16.461 22.0159C16.1562 22.5845 15.8595 23.1448 15.6604 23.7602C15.6421 23.816 15.6237 23.8717 15.6049 23.9292C15.3515 24.7067 15.1247 25.4714 15.0004 26.2802C14.977 26.4102 14.9533 26.5402 14.9291 26.6702C14.9128 26.7602 14.8966 26.8502 14.8804 26.9402C14.437 26.9402 14.0336 26.4147 13.725 26.1244C13.5663 25.9751 13.4067 25.8316 13.2365 25.6954C13.185 25.6508 13.1334 25.6061 13.0804 25.5602C13.0804 25.5206 13.0804 25.481 13.0804 25.4402C13.0408 25.4402 13.0012 25.4402 12.9604 25.4402C12.8647 25.3342 12.8647 25.3342 12.7504 25.1852C12.568 24.95 12.3794 24.7235 12.1841 24.4989C11.8785 24.1334 11.6385 23.7445 11.4038 23.3309C11.3444 23.2272 11.2828 23.1249 11.2211 23.0226C10.9663 22.5953 10.7491 22.157 10.5416 21.7052C10.5038 21.6232 10.5038 21.6232 10.4651 21.5396C10.3059 21.1861 10.1851 20.8331 10.0804 20.4602C10.0405 20.3351 10.0005 20.2101 9.96037 20.0852C9.8346 19.6739 9.73908 19.2629 9.66037 18.8402C9.65208 18.7998 9.64378 18.7594 9.63524 18.7179C9.47992 17.9477 9.46269 17.1816 9.46162 16.3989C9.46141 16.3497 9.4612 16.3005 9.46099 16.2498C9.45862 15.2473 9.54061 14.2853 9.79537 13.3127C9.8138 13.2408 9.83224 13.1688 9.85123 13.0948C9.9934 12.5533 10.1605 12.035 10.3804 11.5202C10.3998 11.4674 10.4192 11.4147 10.4392 11.3603C10.4929 11.2277 10.4929 11.2277 10.6204 11.0402C10.993 10.914 11.3468 10.901 11.7376 10.9Z" fill="white"/>
<path d="M20.0988 18.5996C20.0988 18.7796 20.0987 18.7796 19.9799 18.9097C19.9196 18.9664 19.8592 19.023 19.7987 19.0796C19.7187 19.1591 19.6391 19.2389 19.5595 19.3189C19.3193 19.5591 19.0791 19.7994 18.8388 20.0396C18.7992 20.0198 18.7596 20 18.7188 19.9796C18.8583 19.828 18.9986 19.6769 19.1388 19.5259C19.1777 19.4836 19.2166 19.4413 19.2567 19.3978C19.5224 19.1123 19.8003 18.8505 20.0988 18.5996Z" fill="white"/>
<path d="M19.7996 25.5C19.7996 25.68 19.7996 25.68 19.7005 25.7996C19.6326 25.866 19.6326 25.866 19.5634 25.9338C19.5146 25.982 19.4659 26.0301 19.4157 26.0797C19.3642 26.1297 19.3127 26.1797 19.2596 26.2312C19.1823 26.3073 19.1823 26.3073 19.1035 26.3849C18.9759 26.5103 18.848 26.6353 18.7196 26.76C18.68 26.7402 18.6404 26.7204 18.5996 26.7C18.6438 26.6565 18.6879 26.6131 18.7334 26.5683C19.099 26.2124 19.099 26.2124 19.4359 25.83C19.5484 25.6936 19.6532 25.5976 19.7996 25.5Z" fill="white"/>
<path d="M20.7613 24.5996C20.7613 24.7796 20.7613 24.7796 20.6516 24.909C20.6036 24.9554 20.5557 25.0018 20.5063 25.0496C20.4353 25.1192 20.4353 25.1192 20.3628 25.1902C20.2401 25.3024 20.1163 25.403 19.9813 25.4996C19.9417 25.4798 19.9021 25.46 19.8613 25.4396C20.1583 25.1624 20.4553 24.8852 20.7613 24.5996Z" fill="white"/>
</g>
<defs>
<clipPath id="clip0_0_1">
<rect width="44" height="44" fill="white" transform="translate(0.5 0.5)"/>
</clipPath>
</defs>
</svg>
