<svg width="22" height="16" viewBox="0 0 22 16" fill="none" xmlns="http://www.w3.org/2000/svg">
<rect width="22" height="16" fill="#1E1E1E"/>
<g clip-path="url(#clip0_0_1)">
<path d="M20.75 0.5H1.25C0.835786 0.5 0.5 0.835786 0.5 1.25C0.5 1.66421 0.835786 2 1.25 2H20.75C21.1642 2 21.5 1.66421 21.5 1.25C21.5 0.835786 21.1642 0.5 20.75 0.5Z" fill="#426287"/>
<path d="M20.75 6.5H9.25C8.83579 6.5 8.5 6.83579 8.5 7.25C8.5 7.66421 8.83579 8 9.25 8H20.75C21.1642 8 21.5 7.66421 21.5 7.25C21.5 6.83579 21.1642 6.5 20.75 6.5Z" fill="#426287"/>
<path d="M20.75 13.5H7.25C6.83579 13.5 6.5 13.8358 6.5 14.25C6.5 14.6642 6.83579 15 7.25 15H20.75C21.1642 15 21.5 14.6642 21.5 14.25C21.5 13.8358 21.1642 13.5 20.75 13.5Z" fill="#426287"/>
</g>
<defs>
<clipPath id="clip0_0_1">
<rect width="21" height="15" fill="white" transform="translate(0.5 0.5)"/>
</clipPath>
</defs>
</svg>
