<svg width="23" height="21" viewBox="0 0 23 21" fill="none" xmlns="http://www.w3.org/2000/svg">
<rect width="23" height="21" fill="#1E1E1E"/>
<g clip-path="url(#clip0_0_1)">
<path d="M8.22852 15.875C9.09146 15.875 9.79102 16.5186 9.79102 17.3125C9.79102 18.1064 9.09146 18.75 8.22852 18.75C7.36557 18.75 6.66602 18.1064 6.66602 17.3125C6.66602 16.5186 7.36557 15.875 8.22852 15.875Z" stroke="#364153" stroke-width="1.6"/>
<path d="M16.6035 15.875C17.4664 15.875 18.166 16.5185 18.166 17.3125C18.166 18.1064 17.4664 18.75 16.6035 18.75C15.7406 18.75 15.041 18.1064 15.041 17.3125C15.041 16.5185 15.7406 15.875 16.6035 15.875Z" stroke="#364153" stroke-width="1.6"/>
<path d="M1.5 1.5L1.77209 1.58801C3.12792 2.02656 3.80583 2.24583 4.19358 2.76786C4.58133 3.28989 4.58133 3.98329 4.58133 5.37009V7.97833C4.58133 10.7974 4.64721 11.7276 5.54971 12.6034C6.45221 13.4792 7.90476 13.4792 10.8099 13.4792H11.9167M16.3337 13.4792C17.9598 13.4792 18.7728 13.4792 19.3475 13.0483C19.9222 12.6174 20.0864 11.8849 20.4146 10.4197L20.9352 8.09597C21.2968 6.42937 21.4775 5.59608 21.0151 5.04303C20.5527 4.49 18.9727 4.49 17.2175 4.49H10.8995M4.58133 4.49H6.70833" stroke="#364153" stroke-width="1.6" stroke-linecap="round"/>
</g>
<defs>
<clipPath id="clip0_0_1">
<rect width="22" height="20" fill="white" transform="translate(0.5 0.5)"/>
</clipPath>
</defs>
</svg>
