<svg width="27" height="27" viewBox="0 0 27 27" fill="none" xmlns="http://www.w3.org/2000/svg">
<rect width="27" height="27" fill="#1E1E1E"/>
<path d="M22.9926 6.63745C22.9976 6.57819 23 6.51875 23 6.45947C23 4.82761 21.6724 3.5 20.0405 3.5C20.007 3.5 19.9744 3.50131 19.8985 3.50464L6.57538 3.5037C6.53687 3.50185 6.49778 3.5 6.45725 3.5C4.82796 3.5 3.50257 4.825 3.50257 6.4556L3.50666 6.69411H3.5L3.50852 19.6517L3.50499 20.0956C3.50499 21.7078 4.81648 23.0193 6.42852 23.0193C6.46485 23.0193 6.58113 23.0141 6.58315 23.0141L19.8448 23.016C19.9098 23.0237 19.9802 23.0262 20.0528 23.0262C20.8328 23.0262 21.5667 22.7223 22.1191 22.1702C22.6717 21.6184 22.9759 20.8856 22.9759 20.1058L22.9728 19.8441H22.9928L22.9926 6.63745ZM6.49205 21.7478L6.43576 21.7433C5.50965 21.7433 4.77741 20.9841 4.7689 20.0161V9.34914H21.7245L21.7345 19.9157L21.7152 19.9781C21.7036 20.0181 21.6978 20.0561 21.6978 20.0907C21.6978 20.9702 21.0106 21.6972 20.133 21.7459L19.8974 21.7595V21.748L6.49205 21.7478ZM21.7243 8.08062H4.77018L4.76202 6.64468L4.78053 6.581C4.79185 6.54136 4.79756 6.50194 4.79756 6.46672C4.79756 5.54689 5.55386 4.79708 6.50018 4.79394L6.50998 4.79246L19.9729 4.79286L20.0309 4.79728C20.9527 4.79728 21.7027 5.5473 21.7027 6.46916C21.7027 6.49804 21.707 6.52768 21.717 6.56786L21.7242 6.58712L21.7243 8.08062Z" fill="black"/>
<path d="M17.3014 12.3711C17.1297 12.3711 16.9679 12.4381 16.8458 12.5602L11.9799 17.4263L9.65558 15.1022C9.53484 14.9802 9.37355 14.913 9.20168 14.913C9.0298 14.913 8.86797 14.98 8.74612 15.1017C8.62464 15.2218 8.55721 15.3826 8.55664 15.5544C8.55627 15.7267 8.6235 15.8889 8.7459 16.0117L11.5237 18.7897C11.6451 18.9108 11.8071 18.9775 11.9799 18.9775C12.1524 18.9775 12.3145 18.9108 12.4358 18.7895L17.7551 13.4702C17.8766 13.3502 17.944 13.1896 17.9446 13.0176C17.9449 12.8446 17.8775 12.682 17.7555 12.5605C17.6346 12.4383 17.4733 12.3711 17.3014 12.3711Z" fill="black"/>
</svg>
