<svg width="38" height="38" viewBox="0 0 38 38" fill="none" xmlns="http://www.w3.org/2000/svg">
<rect width="38" height="38" fill="#1E1E1E"/>
<g clip-path="url(#clip0_0_1)">
<path d="M37.5 19C37.5 8.78273 29.2173 0.5 19 0.5C8.78273 0.5 0.5 8.78273 0.5 19C0.5 29.2173 8.78273 37.5 19 37.5C29.2173 37.5 37.5 29.2173 37.5 19Z" fill="#5A9900"/>
<path d="M11.8047 19.514C11.8047 23.7712 15.2558 27.2223 19.513 27.2223C21.4873 27.2223 23.2881 26.4801 24.6519 25.2595L27.2214 22.9399M27.2214 22.9399V27.2223M27.2214 22.9399H22.9389M27.2214 19.514C27.2214 15.2568 23.7702 11.8057 19.513 11.8057C17.5388 11.8057 15.7379 12.5479 14.3741 13.7684L11.8047 16.0881M11.8047 16.0881V11.8057M11.8047 16.0881H16.0871" stroke="white" stroke-width="2" stroke-linecap="round" stroke-linejoin="round"/>
</g>
<defs>
<clipPath id="clip0_0_1">
<rect width="37" height="37" fill="white" transform="translate(0.5 0.5)"/>
</clipPath>
</defs>
</svg>
