<svg width="19" height="18" viewBox="0 0 19 18" fill="none" xmlns="http://www.w3.org/2000/svg">
<rect width="19" height="18" fill="#1E1E1E"/>
<g clip-path="url(#clip0_0_1)">
<path d="M8.54808 1.42731C8.84744 0.505999 10.1508 0.506001 10.4502 1.42731L11.7442 5.41009C11.8781 5.82211 12.2621 6.10107 12.6953 6.10107H16.883C17.8518 6.10107 18.2545 7.34069 17.4708 7.91009L14.0829 10.3716C13.7324 10.6263 13.5857 11.0776 13.7196 11.4897L15.0137 15.4724C15.313 16.3937 14.2586 17.1599 13.4748 16.5905L10.0869 14.129C9.73644 13.8743 9.26184 13.8743 8.91135 14.129L5.5234 16.5905C4.73968 17.1599 3.68521 16.3937 3.98456 15.4724L5.27864 11.4897C5.41252 11.0776 5.26586 10.6263 4.91537 10.3716L1.52741 7.91009C0.7437 7.34069 1.14648 6.10107 2.1152 6.10107H6.30294C6.73617 6.10107 7.12013 5.82211 7.254 5.41009L8.54808 1.42731Z" fill="#5A9900"/>
</g>
<defs>
<clipPath id="clip0_0_1">
<rect width="18" height="17" fill="white" transform="translate(0.5 0.5)"/>
</clipPath>
</defs>
</svg>
