<svg width="45" height="45" viewBox="0 0 45 45" fill="none" xmlns="http://www.w3.org/2000/svg">
<rect width="45" height="45" fill="#1E1E1E"/>
<g clip-path="url(#clip0_0_1)">
<path d="M40.5 0.5H4.5C2.29086 0.5 0.5 2.29086 0.5 4.5V40.5C0.5 42.7091 2.29086 44.5 4.5 44.5H40.5C42.7091 44.5 44.5 42.7091 44.5 40.5V4.5C44.5 2.29086 42.7091 0.5 40.5 0.5Z" fill="#5A9900"/>
<path d="M18.4006 12.4589C18.579 12.5866 18.579 12.5866 18.6999 12.6964C18.6999 12.7466 18.6999 12.7968 18.6999 12.8484C18.75 12.8484 18.8002 12.8484 18.8519 12.8484C18.8519 12.8986 18.8519 12.9488 18.8519 13.0004C18.902 13.0004 18.9522 13.0004 19.0039 13.0004C19.1351 13.1447 19.1351 13.1447 19.2794 13.3329C19.3274 13.3947 19.3754 13.4564 19.4248 13.52C19.5359 13.6844 19.5359 13.6844 19.5359 13.8364C19.586 13.8364 19.6362 13.8364 19.6879 13.8364C19.7082 13.78 19.7286 13.7236 19.7496 13.6654C19.8363 13.4648 19.923 13.3154 20.0679 13.1524C20.118 13.1524 20.1682 13.1524 20.2199 13.1524C20.2199 13.1023 20.2199 13.0521 20.2199 13.0004C20.27 13.0004 20.3202 13.0004 20.3719 13.0004C20.3719 12.9503 20.3719 12.9001 20.3719 12.8484C20.422 12.8484 20.4722 12.8484 20.5239 12.8484C20.5239 12.7983 20.5239 12.7481 20.5239 12.6964C20.6783 12.5806 20.8311 12.4761 20.9941 12.3734C21.0425 12.343 21.0908 12.3125 21.1407 12.2811C22.5112 11.4336 24.0857 10.9937 25.7019 11.2813C27.1559 11.6354 28.3926 12.7609 29.1879 13.9884C29.6724 14.8152 29.8944 15.6198 29.9479 16.5724C30.0396 16.5707 30.1313 16.5689 30.2257 16.5671C30.3484 16.5657 30.4711 16.5643 30.5939 16.5629C30.654 16.5617 30.7142 16.5604 30.7761 16.5591C31.4424 16.5536 31.9535 16.7143 32.5414 17.0189C32.6185 17.0576 32.6185 17.0576 32.6972 17.097C33.0121 17.2572 33.3121 17.4252 33.5959 17.6364C33.5959 17.6866 33.5959 17.7368 33.5959 17.7884C33.646 17.7884 33.6962 17.7884 33.7479 17.7884C33.7479 17.8386 33.7479 17.8888 33.7479 17.9404C33.7897 17.9566 33.8315 17.9728 33.8746 17.9894C34.819 18.5384 35.2994 19.7842 35.6051 20.7714C35.97 22.283 35.6694 23.8943 34.8788 25.2279C34.6657 25.5685 34.4364 25.8969 34.2039 26.2244C34.1442 26.3103 34.0847 26.3962 34.0251 26.4821C33.7233 26.9102 33.7233 26.9102 33.5959 27.0604C33.5457 27.0604 33.4955 27.0604 33.4439 27.0604C33.4243 27.1032 33.4047 27.1459 33.3845 27.1899C33.2811 27.3847 33.1605 27.5508 33.0259 27.7254C32.9796 27.7862 32.9334 27.8469 32.8857 27.9095C32.8442 27.9554 32.8027 28.0012 32.7599 28.0484C32.7097 28.0484 32.6595 28.0484 32.6079 28.0484C32.5875 28.0927 32.5671 28.137 32.5461 28.1826C32.4547 28.3546 32.3542 28.4897 32.2279 28.6374C32.1887 28.6841 32.1495 28.7307 32.1091 28.7788C31.9999 28.8844 31.9999 28.8844 31.8479 28.8844C31.8277 28.9294 31.8075 28.9744 31.7867 29.0207C31.5197 29.5137 30.8576 30.1519 30.3279 30.3284C30.3279 30.3786 30.3279 30.4288 30.3279 30.4804C30.2777 30.4804 30.2275 30.4804 30.1759 30.4804C30.1759 30.5306 30.1759 30.5808 30.1759 30.6324C30.0316 30.7637 30.0316 30.7637 29.8434 30.9079C29.7816 30.9559 29.7199 31.004 29.6563 31.0534C29.4919 31.1644 29.4919 31.1644 29.3399 31.1644C29.3399 31.2146 29.3399 31.2648 29.3399 31.3164C29.2263 31.416 29.2263 31.416 29.0673 31.5287C29.0095 31.5701 28.9517 31.6114 28.8921 31.6541C28.8298 31.6978 28.7675 31.7416 28.7034 31.7867C28.6402 31.8315 28.5771 31.8764 28.5121 31.9226C28.3872 32.0112 28.2623 32.0996 28.1371 32.1877C28.0081 32.2789 27.8798 32.3712 27.7519 32.4639C27.2142 32.8513 26.6454 33.1891 26.0719 33.5204C26.0215 33.5537 25.9711 33.5869 25.9193 33.6211C25.6273 33.7201 25.3601 33.6548 25.0857 33.5259C24.9199 33.4325 24.7596 33.3333 24.5994 33.2307C24.5104 33.1749 24.5104 33.1749 24.4197 33.118C23.4847 32.5253 22.5929 31.877 21.7289 31.1855C21.5987 31.0817 21.4665 30.9804 21.3305 30.8845C21.29 30.8515 21.2495 30.8185 21.2079 30.7844C21.2079 30.7343 21.2079 30.6841 21.2079 30.6324C21.1655 30.6136 21.1232 30.5948 21.0796 30.5754C20.8716 30.463 20.7004 30.3334 20.5239 30.1764C20.5239 30.1263 20.5239 30.0761 20.5239 30.0244C20.4737 30.0244 20.4235 30.0244 20.3719 30.0244C20.3719 29.9743 20.3719 29.9241 20.3719 29.8724C20.3046 29.843 20.3046 29.843 20.236 29.8129C20.0548 29.7133 19.9479 29.6101 19.809 29.4577C19.0794 28.6802 18.3306 28.0932 17.4202 27.5411C17.2024 27.4077 16.9913 27.2671 16.7809 27.1222C16.724 27.0835 16.6672 27.0448 16.6087 27.0049C16.5714 26.9731 16.5342 26.9412 16.4959 26.9084C16.4959 26.8583 16.4959 26.8081 16.4959 26.7564C16.4431 26.7395 16.3902 26.7225 16.3358 26.7051C16.0642 26.5808 15.8583 26.4054 15.6361 26.2102C15.5712 26.1542 15.5712 26.1542 15.5049 26.0971C15.3787 25.9881 15.2532 25.8784 15.1279 25.7684C15.0331 25.6853 15.0331 25.6853 14.9364 25.6004C14.8374 25.5134 14.7387 25.4261 14.6404 25.3383C14.5069 25.2216 14.5069 25.2216 14.2919 25.0844C14.2919 25.0343 14.2919 24.9841 14.2919 24.9324C14.2417 24.9324 14.1915 24.9324 14.1399 24.9324C14.1399 24.8823 14.1399 24.8321 14.1399 24.7804C14.0987 24.764 14.0576 24.7475 14.0152 24.7306C13.7738 24.5931 13.5921 24.4067 13.3989 24.2104C13.3604 24.1725 13.3219 24.1346 13.2822 24.0956C12.9999 23.8117 12.9999 23.8117 12.9999 23.6404C12.9497 23.6404 12.8995 23.6404 12.8479 23.6404C12.8479 23.5903 12.8479 23.5401 12.8479 23.4884C12.7977 23.4884 12.7475 23.4884 12.6959 23.4884C12.6959 23.4383 12.6959 23.3881 12.6959 23.3364C12.6457 23.3364 12.5955 23.3364 12.5439 23.3364C12.4067 23.1744 12.2773 23.0117 12.1496 22.8424C11.9232 22.5448 11.6943 22.2541 11.4448 21.9753C10.6505 21.0762 10.0241 20.0406 9.57986 18.9284C9.54547 18.8459 9.5111 18.7633 9.47567 18.6782C9.26808 18.0885 9.2477 17.5212 9.24261 16.9002C9.24183 16.8207 9.24104 16.7413 9.24023 16.6594C9.24926 15.8654 9.449 15.179 9.79361 14.4682C9.82007 14.4128 9.84655 14.3575 9.87381 14.3005C10.067 13.9062 10.2738 13.5575 10.5679 13.2284C10.618 13.2284 10.6682 13.2284 10.7199 13.2284C10.7402 13.183 10.7606 13.1375 10.7816 13.0907C10.8718 12.9246 10.9552 12.817 11.0999 12.6964C11.15 12.6964 11.2002 12.6964 11.2519 12.6964C11.2519 12.6463 11.2519 12.5961 11.2519 12.5444C13.3166 10.6296 16.2077 10.9816 18.4006 12.4589ZM20.5239 13.6844C20.5239 13.7346 20.5239 13.7848 20.5239 13.8364C20.4737 13.8364 20.4235 13.8364 20.3719 13.8364C20.2519 14.0118 20.1396 14.1868 20.0299 14.3684C19.9201 14.55 19.8078 14.725 19.6879 14.9004C19.6377 14.9004 19.5875 14.9004 19.5359 14.9004C19.4266 14.7588 19.4266 14.7588 19.3079 14.5727C19.2687 14.5119 19.2295 14.451 19.1891 14.3883C19.1531 14.3316 19.117 14.2749 19.0799 14.2164C19.0046 14.1036 19.0046 14.1036 18.9279 13.9884C18.8777 13.9884 18.8275 13.9884 18.7759 13.9884C18.7759 13.9383 18.7759 13.8881 18.7759 13.8364C18.7257 13.8364 18.6755 13.8364 18.6239 13.8364C18.5862 13.7236 18.5862 13.7236 18.5479 13.6084C17.3389 12.6998 15.8687 12.3039 14.3679 12.4684C13.7131 12.5982 13.1449 12.9025 12.6199 13.3044C12.5302 13.3659 12.5302 13.3659 12.4388 13.4285C11.4532 14.1422 10.9241 15.1318 10.5679 16.2684C10.5428 16.3437 10.5177 16.4189 10.4919 16.4964C10.2735 18.9667 11.3952 20.8171 12.9239 22.6524C13.215 22.9953 13.5109 23.3339 13.8082 23.6714C13.9037 23.7829 13.9937 23.899 14.0832 24.0154C14.1269 24.0672 14.1707 24.119 14.2159 24.1724C14.266 24.1724 14.3162 24.1724 14.3679 24.1724C14.3883 24.2175 14.4087 24.2626 14.4298 24.3091C14.5201 24.4769 14.6116 24.5878 14.7455 24.7223C14.7889 24.7659 14.8323 24.8095 14.877 24.8544C14.9222 24.8989 14.9673 24.9435 15.0139 24.9894C15.059 25.0352 15.1042 25.0809 15.1507 25.1281C15.1941 25.1713 15.2375 25.2145 15.2822 25.259C15.3417 25.3182 15.3417 25.3182 15.4023 25.3786C15.5048 25.4804 15.5048 25.4804 15.6599 25.4644C15.6599 25.5146 15.6599 25.5648 15.6599 25.6164C15.7901 25.7541 15.7901 25.7541 15.9544 25.8919C16.009 25.9399 16.0637 25.988 16.12 26.0374C16.2573 26.1637 16.2573 26.1637 16.4199 26.1484C16.4199 26.1986 16.4199 26.2488 16.4199 26.3004C16.5516 26.4225 16.6888 26.5389 16.8284 26.6519C16.9042 26.7141 16.98 26.7762 17.0581 26.8402C17.2355 26.9994 17.2355 26.9994 17.4079 26.9844C17.4079 27.0346 17.4079 27.0848 17.4079 27.1364C17.5568 27.2608 17.5568 27.2608 17.7119 27.3644C17.762 27.3394 17.8122 27.3143 17.8639 27.2884C17.8169 27.2295 17.77 27.1705 17.7217 27.1097C16.3076 25.3143 15.3903 23.5517 15.5839 21.2084C15.7258 20.0648 16.3553 19.0925 17.1039 18.2444C17.1431 18.198 17.1824 18.1516 17.2229 18.1037C17.893 17.3681 18.9266 16.7595 19.9159 16.6484C21.5645 16.5741 23.235 16.8743 24.5444 17.9461C24.9436 18.3125 25.2795 18.7332 25.6159 19.1564C25.6564 19.104 25.697 19.0516 25.7388 18.9976C26.7593 17.7105 27.855 17.0751 29.4159 16.6484C29.2432 15.2186 28.6641 14.0397 27.5809 13.0848C27.4365 12.972 27.2907 12.8702 27.1359 12.7724C27.0715 12.7309 27.0715 12.7309 27.0058 12.6884C25.1263 11.6173 21.9503 11.9965 20.5239 13.6844Z" fill="white"/>
<path d="M14.3667 24.3242C14.7232 24.6213 15.0546 24.9307 15.3776 25.2638C15.5004 25.3945 15.5004 25.3945 15.6587 25.4642C15.6587 25.5144 15.6587 25.5645 15.6587 25.6162C15.6995 25.6335 15.7403 25.6507 15.7822 25.6685C16.0254 25.8029 16.2128 25.961 16.4187 26.1482C16.4187 26.1984 16.4187 26.2485 16.4187 26.3002C16.4615 26.3198 16.5042 26.3394 16.5482 26.3596C16.743 26.463 16.9091 26.5835 17.0837 26.7182C17.1445 26.7645 17.2052 26.8107 17.2678 26.8583C17.3137 26.8999 17.3595 26.9414 17.4067 26.9842C17.4067 27.0344 17.4067 27.0845 17.4067 27.1362C17.704 27.248 17.704 27.248 18.0147 27.2882C18.0912 27.4146 18.1672 27.5413 18.2427 27.6682C18.318 27.7184 18.3932 27.7685 18.4707 27.8202C18.523 28.0197 18.523 28.0197 18.5467 28.2002C18.0663 28.0278 17.6729 27.7271 17.2547 27.4402C17.1794 27.3898 17.1041 27.3393 17.0265 27.2873C16.9576 27.2406 16.8887 27.1939 16.8177 27.1457C16.7554 27.1036 16.6931 27.0615 16.6289 27.0181C16.5625 26.9637 16.5625 26.9637 16.4947 26.9082C16.4947 26.8581 16.4947 26.8079 16.4947 26.7562C16.4155 26.7308 16.4155 26.7308 16.3347 26.7049C16.0631 26.5806 15.8572 26.4052 15.635 26.21C15.5917 26.1726 15.5484 26.1353 15.5038 26.0969C15.3776 25.9879 15.2521 25.8782 15.1267 25.7682C15.0636 25.7128 15.0004 25.6573 14.9353 25.6002C14.8363 25.5132 14.7376 25.4258 14.6393 25.338C14.5057 25.2213 14.5057 25.2213 14.2907 25.0842C14.2907 25.0341 14.2907 24.9839 14.2907 24.9322C14.2406 24.9322 14.1904 24.9322 14.1387 24.9322C14.174 24.8664 14.174 24.8664 14.21 24.7992C14.2853 24.6397 14.3269 24.4952 14.3667 24.3242Z" fill="white"/>
<path d="M16.8764 26.7559C17.1076 26.7775 17.2101 26.8516 17.4084 26.9839C17.4084 27.034 17.4084 27.0842 17.4084 27.1359C17.7056 27.2476 17.7056 27.2476 18.0164 27.2879C18.0929 27.4142 18.1689 27.5409 18.2444 27.6679C18.3197 27.718 18.3949 27.7682 18.4724 27.8199C18.5247 28.0194 18.5247 28.0194 18.5484 28.1999C17.8461 27.9482 17.2335 27.4382 16.6484 26.9839C16.7529 26.869 16.7529 26.869 16.8764 26.7559Z" fill="white"/>
<path d="M17.6364 27.2883C17.8121 27.2646 17.8121 27.2646 18.0164 27.2883C18.1399 27.4688 18.1399 27.4688 18.2444 27.6683C18.3196 27.7185 18.3949 27.7686 18.4724 27.8203C18.5246 28.0198 18.5246 28.0198 18.5484 28.2003C18.273 28.0996 18.0441 27.9766 17.8026 27.8108C17.7426 27.7699 17.6825 27.7289 17.6206 27.6867C17.5757 27.6556 17.5307 27.6244 17.4844 27.5923C17.5345 27.5422 17.5847 27.492 17.6364 27.4403C17.6364 27.3902 17.6364 27.34 17.6364 27.2883Z" fill="white"/>
<path d="M11.2524 12.5439C11.3025 12.5439 11.3527 12.5439 11.4044 12.5439C11.2943 12.8057 11.1553 12.9514 10.9389 13.1329C10.8563 13.2029 10.8563 13.2029 10.772 13.2743C10.7299 13.3091 10.6878 13.344 10.6444 13.3799C10.6193 13.3298 10.5942 13.2796 10.5684 13.2279C10.6185 13.2279 10.6687 13.2279 10.7204 13.2279C10.7407 13.1825 10.7611 13.137 10.7821 13.0902C10.8723 12.9241 10.9557 12.8165 11.1004 12.6959C11.1505 12.6959 11.2007 12.6959 11.2524 12.6959C11.2524 12.6458 11.2524 12.5956 11.2524 12.5439Z" fill="white"/>
<path d="M17.9395 27.668C18.1151 27.7181 18.2906 27.7683 18.4715 27.82C18.4966 27.9454 18.5217 28.0708 18.5475 28.2C18.2889 28.1231 18.186 28.0747 18.0298 27.8485C18 27.7889 17.9702 27.7293 17.9395 27.668Z" fill="white"/>
</g>
<defs>
<clipPath id="clip0_0_1">
<rect width="44" height="44" fill="white" transform="translate(0.5 0.5)"/>
</clipPath>
</defs>
</svg>
